<svg xmlns="http://www.w3.org/2000/svg" viewBox="0 0 573.19 151.48"><defs><style>.cls-1{fill:#fff;}</style></defs><title>Asset 1</title><g id="Layer_2" data-name="Layer 2"><g id="Layer_2-2" data-name="Layer 2"><circle class="cls-1" cx="525.22" cy="48.39" r="5.32" transform="translate(-1.6 22.68) rotate(-2.47)"/><circle class="cls-1" cx="483.86" cy="32.93" r="5.32" transform="translate(-0.97 20.89) rotate(-2.47)"/><circle class="cls-1" cx="567.87" cy="87.35" r="5.32" transform="matrix(1, -0.04, 0.04, 1, -3.24, 24.56)"/><circle class="cls-1" cx="527.89" cy="105.54" r="5.32" transform="translate(-4.06 22.85) rotate(-2.47)"/><circle class="cls-1" cx="549.67" cy="135.08" r="5.32" transform="translate(-5.31 23.82) rotate(-2.47)"/><circle class="cls-1" cx="496.92" cy="146.15" r="5.32" transform="translate(-5.84 21.55) rotate(-2.47)"/><circle class="cls-1" cx="490.99" cy="65.42" r="5.32" transform="translate(-2.36 21.22) rotate(-2.47)"/><path class="cls-1" d="M437.51,76.57a.5.5,0,0,1-.35-.85l10.75-10.83H487a.5.5,0,0,1,0,1H448.32L437.87,76.42A.5.5,0,0,1,437.51,76.57Z"/><path class="cls-1" d="M437.51,77.07a1,1,0,0,1-.71-1.71l10.75-10.83a.5.5,0,0,1,.35-.15H487a1,1,0,0,1,0,2H448.53L438.22,76.77A1,1,0,0,1,437.51,77.07Zm0-1v0Zm10.6-10.68-.14.14a.5.5,0,0,1,.34-.14Z"/><path class="cls-1" d="M86.22,29.44a2.15,2.15,0,0,1,.47-.94,5.41,5.41,0,0,1,2.21-1.63,3.43,3.43,0,0,1,1.23-.25h18.58a3.09,3.09,0,0,1,2.11.76,9.39,9.39,0,0,1,1.31,1.34l1.81,4.14L152,131.12a2.14,2.14,0,0,1-.22,2.36,3.53,3.53,0,0,1-2.76.91H128.24a4.55,4.55,0,0,1-2.58-.62,4,4,0,0,1-1.42-2.07q-1.45-3.7-2.83-7.37T118.66,117H80.12q-1.38,3.7-2.79,7.37t-2.79,7.37a3.63,3.63,0,0,1-3.7,2.69H49.42a3.54,3.54,0,0,1-2.29-.73,1.71,1.71,0,0,1-.33-2.18ZM99.43,60.5q-1.38,3.7-2.79,8t-2.79,8.64q-1.38,4.35-2.79,8.6t-2.79,7.95h22.28Z"/><path class="cls-1" d="M243.67,133.17a4.5,4.5,0,0,1-2,1,9.89,9.89,0,0,1-2,.22h-11a5,5,0,0,1-2.25-.47,4.83,4.83,0,0,1-1.6-1.27,7.48,7.48,0,0,1-1.09-1.81,15.3,15.3,0,0,1-.73-2.1l-1.52-7.09a17.83,17.83,0,0,1-3.63,4.74,29.52,29.52,0,0,1-6.28,4.6,39.51,39.51,0,0,1-8.6,3.48,38.91,38.91,0,0,1-10.6,1.37,32.36,32.36,0,0,1-14.66-3.19A31.74,31.74,0,0,1,167,123.94a38.46,38.46,0,0,1-6.64-12.88,53.5,53.5,0,0,1-2.25-15.71V47.8a6.32,6.32,0,0,1,1.2-4.17,4.72,4.72,0,0,1,3.81-1.42h16.77q3.12,0,4.28,1.05t1.16,4.11v47.3a14.89,14.89,0,0,0,1.2,5.92,16.61,16.61,0,0,0,3.23,4.94,15.05,15.05,0,0,0,4.75,3.38,13.81,13.81,0,0,0,5.77,1.23,20.63,20.63,0,0,0,5.66-.87,18.53,18.53,0,0,0,5.66-2.72,15.52,15.52,0,0,0,4.36-4.76,13.32,13.32,0,0,0,1.74-7V47.59a6.87,6.87,0,0,1,.47-2.47,3.92,3.92,0,0,1,1.42-1.89,6.64,6.64,0,0,1,1.78-.8,7.66,7.66,0,0,1,1.92-.22h16.4q3.12,0,4.5,1.52a5.83,5.83,0,0,1,1.38,4.06V129a5.34,5.34,0,0,1-.62,2.54,4.57,4.57,0,0,1-1.71,1.81Z"/><path class="cls-1" d="M269.68,27.84a4,4,0,0,1,1.49-3.38,16.77,16.77,0,0,1,4.25-2.14l16.48-5.73a3.6,3.6,0,0,1,.69-.07h.62q2.69,0,3.59,1.56a8.11,8.11,0,0,1,.91,4.1l-.07,20h9.94a5.26,5.26,0,0,1,3.77,1.38,5.45,5.45,0,0,1,1.45,4.14v14a6,6,0,0,1-1.45,4.46,5.18,5.18,0,0,1-3.77,1.42h-9.94l.07,61.26a5.28,5.28,0,0,1-1.6,4.17,6.45,6.45,0,0,1-4.43,1.42h-16.4q-5.59,0-5.59-5.59l-.07-61.26h-7.48q-5.59,0-5.59-5.88v-14q0-5.51,5.59-5.52h7.48Z"/><path class="cls-1" d="M328.78,88.37a48,48,0,0,1,6.5-24.28,47.37,47.37,0,0,1,7.4-9.58,45.91,45.91,0,0,1,9.62-7.37,48.41,48.41,0,0,1,24.24-6.39,47.34,47.34,0,0,1,33.64,13.75,48,48,0,0,1,10.16,15.1,46.9,46.9,0,0,1,3.74,18.76,47.62,47.62,0,0,1-1.71,12.81,48.38,48.38,0,0,1-4.79,11.43,47,47,0,0,1-17,17,47.41,47.41,0,0,1-24,6.42,48.6,48.6,0,0,1-12.81-1.67,47,47,0,0,1-28.45-21.77,48.3,48.3,0,0,1-4.79-11.43A47.55,47.55,0,0,1,328.78,88.37Zm26.49,0a26.49,26.49,0,0,0,1.49,9,21.57,21.57,0,0,0,4.21,7.22,19.76,19.76,0,0,0,6.61,4.83,20.76,20.76,0,0,0,8.75,1.78,19.91,19.91,0,0,0,8.53-1.78,19.18,19.18,0,0,0,6.46-4.83,21.3,21.3,0,0,0,4.06-7.22,28.75,28.75,0,0,0,0-17.82,22.94,22.94,0,0,0-4.06-7.4,19,19,0,0,0-15-6.9,20.08,20.08,0,0,0-8.75,1.85,19.72,19.72,0,0,0-6.61,5,23.23,23.23,0,0,0-4.21,7.4A26.38,26.38,0,0,0,355.27,88.37Z"/><path class="cls-1" d="M347.56,133.17l-1.21-.81a53.56,53.56,0,0,1-22.49-35.28l-.14-.84L325.4,96l.14.84A51.87,51.87,0,0,0,347.31,131l1.19.8Z"/><path class="cls-1" d="M415.1,124.88l-1.25-1.14.57-.63a51.55,51.55,0,0,0,13.45-34.78c0-1.49-.07-3-.19-4.49l-.07-.84,1.69-.14.07.84c.13,1.53.2,3.09.2,4.63a53.24,53.24,0,0,1-13.89,35.93Z"/><path class="cls-1" d="M420.44,61.6l-.45-.72a51.32,51.32,0,0,0-30.93-22.59l-.82-.21.42-1.64.82.21A53,53,0,0,1,421.43,60l.45.72Z"/><path class="cls-1" d="M378.22,151.36c-1.28,0-2-.05-2.12-.06h0a62.81,62.81,0,0,1-55-32.88l-.36-.66,1.81-1,.36.66a60.83,60.83,0,0,0,53.37,31.82c.7.05,16.09,1.09,30.08-7.81l.63-.4,1.1,1.74-.63.4C395.78,150.56,383.12,151.36,378.22,151.36Z"/><path class="cls-1" d="M438.93,84.65h-2V83.9a56.94,56.94,0,0,0-56.75-57h-.75v-2h.75a58.93,58.93,0,0,1,58.74,59Z"/><path class="cls-1" d="M563.78,88.14H434.69a.5.5,0,1,1,0-1h129.1a.5.5,0,0,1,0,1Z"/><path class="cls-1" d="M563.78,88.64H434.69a1,1,0,1,1,0-2h129.1a1,1,0,0,1,0,2Zm0-1v0Z"/><path class="cls-1" d="M523.78,106.15H481.91l-18.15-18a.5.5,0,0,1,.7-.71l17.85,17.69h41.46a.5.5,0,0,1,0,1Z"/><path class="cls-1" d="M523.78,106.65H481.91a.5.5,0,0,1-.35-.14l-18.15-18a1,1,0,0,1,0-1.41,1.2,1.2,0,0,1,.71-.3,1,1,0,0,1,.7.29l17.71,17.54h41.25a1,1,0,0,1,0,2Zm0-1v0Zm-41.67,0h.21a.5.5,0,0,1-.35-.14L464.12,87.81Z"/><path class="cls-1" d="M545.87,135.81H470.74l-.15-.14-37-36.81a.5.5,0,0,1,.7-.71l36.89,36.67h74.72a.5.5,0,0,1,0,1Z"/><path class="cls-1" d="M545.87,136.31H470.74a.5.5,0,0,1-.35-.15l-37.18-37a1,1,0,0,1,.7-1.71h0a1,1,0,0,1,.7.29l36.74,36.52h74.51a1,1,0,0,1,0,2Zm0-1v0Zm-74.92,0h.21a.5.5,0,0,1-.34-.14l.14.14Z"/><path class="cls-1" d="M492.62,147h-42.2L425,122.13a.5.5,0,1,1,.7-.71L450.82,146h41.8a.5.5,0,0,1,0,1Z"/><path class="cls-1" d="M492.62,147.48h-42.2a.5.5,0,0,1-.35-.14l-25.91-25.25a1,1,0,0,1,1.4-1.43L451,145.48h41.59a1,1,0,0,1,0,2Zm0-1v0Zm-42,0h.21a.5.5,0,0,1-.35-.14l-25.16-24.56Z"/><path class="cls-1" d="M458.56,123.09a.5.5,0,0,1-.35-.85l20-20a.5.5,0,1,1,.71.71l-20,20A.5.5,0,0,1,458.56,123.09Z"/><path class="cls-1" d="M458.56,123.59a1,1,0,0,1-.71-1.71l20-20a1,1,0,0,1,1.41,0,1,1,0,0,1,0,1.41l-20,20A1,1,0,0,1,458.56,123.59Zm0-1v0Z"/><path class="cls-1" d="M31.7,44.76A7.59,7.59,0,0,0,30.21,43a6.45,6.45,0,0,0-1.89-1.16,5.26,5.26,0,0,0-1.79-.39V93.7a1,1,0,0,1-2,0V59.87l-4,4.24v46.46a3.31,3.31,0,1,1-2-.1V63.31L24.47,57l.06,0V41.41H9.77a4.85,4.85,0,0,0-4.07,1.67,6.3,6.3,0,0,0-1.31,4v81.12q0,5.6,5.38,5.6H26.43a6.19,6.19,0,0,0,4.37-1.42,5.43,5.43,0,0,0,1.53-4.18V47.09A4.4,4.4,0,0,0,31.7,44.76Z"/><path class="cls-1" d="M18.24,4.66A13.72,13.72,0,1,0,32,18.37,13.72,13.72,0,0,0,18.24,4.66Zm.29,20.1A6.52,6.52,0,1,1,24.76,18,6.52,6.52,0,0,1,18.53,24.76Z"/><path class="cls-1" d="M18.24,36.5A18.25,18.25,0,0,1,17.46,0l.8,0A18.27,18.27,0,0,1,36.48,17.46h0A18.27,18.27,0,0,1,19,36.48Zm0-35.5L17.5,1a17.25,17.25,0,1,0,18,16.49h0A17.27,17.27,0,0,0,18.26,1Z"/><path class="cls-1" d="M376.83,146.4c-31.92,0-57.9-26.15-57.9-58.29s26-58.29,57.9-58.29,57.9,26.15,57.9,58.29S408.76,146.4,376.83,146.4Zm0-115.08c-31.1,0-56.4,25.47-56.4,56.79s25.3,56.79,56.4,56.79,56.4-25.47,56.4-56.79S407.93,31.32,376.83,31.32Z"/><path class="cls-1" d="M429.78,51.14a.5.5,0,0,1-.35-.85l2.48-2.48h88.71a.5.5,0,0,1,0,1h-88.3L430.14,51A.5.5,0,0,1,429.78,51.14Z"/><path class="cls-1" d="M429.38,52.13a1,1,0,0,1-.71-1.71l2.88-3a.5.5,0,0,1,.35-.15h88.71a1,1,0,0,1,0,2H432.53l-2.44,2.54A1,1,0,0,1,429.38,52.13Zm.4-1.5v0Zm2.33-2.33-.14.14a.5.5,0,0,1,.34-.14Z"/><path class="cls-1" d="M446.12,48.64a.5.5,0,0,1-.36-.85l15-15.15H478.8a.5.5,0,0,1,0,1H461.16L446.47,48.49A.5.5,0,0,1,446.12,48.64Z"/><path class="cls-1" d="M446.12,49.14a1,1,0,0,1-.71-1.7l15-15.15a.5.5,0,0,1,.36-.15H478.8a1,1,0,0,1,0,2H461.37l-14.54,14.7A1,1,0,0,1,446.12,49.14Zm14.83-16L449.25,45l11.56-11.69a.5.5,0,0,1,.36-.15Z"/></g></g></svg>